<?xml version="1.0" encoding="utf-8"?>
<!-- Generator: Adobe Illustrator 22.0.1, SVG Export Plug-In . SVG Version: 6.00 Build 0)  -->
<svg version="1.1" id="Layer_1" xmlns="http://www.w3.org/2000/svg" xmlns:xlink="http://www.w3.org/1999/xlink" x="0px" y="0px"
	 viewBox="0 0 200 200" style="enable-background:new 0 0 200 200;" xml:space="preserve">
<style type="text/css">
	.st0{fill:#F5F5F5;}
</style>
<g>
	<path class="st0" d="M174.1,37.6L70.5,7.4C62,4.9,53.1,9.8,50.7,18.2L14.5,142.2c-2.5,8.5,2.4,17.4,10.9,19.8L129,192.3
		c8.5,2.5,17.4-2.4,19.8-10.9L185,57.5C187.5,49,182.6,40.1,174.1,37.6z M67.8,16.6l103.6,30.3c3.4,1,5.3,4.5,4.3,7.9L166,88.1
		L50.2,54.3l9.7-33.4C60.9,17.6,64.4,15.6,67.8,16.6z M131.7,183L28,152.7c-3.4-1-5.3-4.5-4.3-7.9l23.7-81.3l115.8,33.8l-23.7,81.3
		C138.6,182,135,184,131.7,183z"/>
	<path class="st0" d="M144.4,101.9L60.6,77.5c-3.5-1-7.2,1-8.2,4.5l-16.1,55.1c-1,3.5,1,7.2,4.5,8.2l83.8,24.5c3.5,1,7.2-1,8.2-4.5
		l16.1-55.1C149.9,106.6,147.9,103,144.4,101.9z M96.3,151.5l-20.7-6l5.9-20.2l20.7,6L96.3,151.5z M104.9,122.1l-20.7-6L90,96.1
		l20.7,6L104.9,122.1z M80.8,93.4l-5.8,19.9l-20-5.8l5.8-19.9L80.8,93.4z M52.3,116.8l20,5.8l-5.9,20.2l-20-5.8L52.3,116.8z
		 M124.3,159.7l-18.8-5.5l14.4-49.3l18.8,5.5L124.3,159.7z"/>
</g>
</svg>
