<?xml version="1.0" encoding="utf-8"?>
<!-- Generator: Adobe Illustrator 22.1.0, SVG Export Plug-In . SVG Version: 6.00 Build 0)  -->
<svg version="1.1" id="Layer_1" xmlns="http://www.w3.org/2000/svg" xmlns:xlink="http://www.w3.org/1999/xlink" x="0px" y="0px"
	 viewBox="0 0 22 24" style="enable-background:new 0 0 22 24;" xml:space="preserve">
<style type="text/css">
	.st0{fill:#2E8ED2;}
</style>
<g>
	<path class="st0" d="M10.9,9.3c-0.9,0-1.6,0.7-1.6,1.6v4.9c0,0.9,0.7,1.6,1.6,1.6s1.6-0.7,1.6-1.6v-4.9C12.6,10,11.8,9.3,10.9,9.3z
		"/>
	<path class="st0" d="M9.4,6c0,0.9,0.7,1.6,1.6,1.6c0.9,0,1.6-0.7,1.6-1.6S11.8,4.4,11,4.4C10.1,4.4,9.4,5.1,9.4,6z"/>
	<path class="st0" d="M21.9,7.9c0-0.4-0.4-0.8-0.8-0.8c-0.5,0-0.8,0.4-0.8,0.8V8v8c0,2-1.6,3.5-3.5,3.5H13l-2,2.7l-2.1-2.6H5.2
		c-2,0-3.5-1.6-3.5-3.5V5.2c0-2,1.6-3.5,3.5-3.5h11.5c1.7,0,3.2,1.3,3.5,3l0,0c0,0.5,0.4,0.8,0.8,0.8s0.8-0.4,0.8-0.8
		c0-0.1,0-0.1,0-0.2l0,0C21.5,1.9,19.3,0,16.7,0H5.2C2.4,0,0,2.3,0,5.2v10.9c0,2.9,2.3,5.2,5.2,5.2h2.9l1.7,2.1
		C9.9,23.5,10.3,24,11,24l0,0c0.3,0,0.7-0.1,1.1-0.6l1.7-2.1h2.9c2.9,0,5.2-2.3,5.2-5.2L21.9,7.9L21.9,7.9z"/>
</g>
</svg>
