<?xml version="1.0" encoding="utf-8"?>
<!-- Generator: Adobe Illustrator 22.1.0, SVG Export Plug-In . SVG Version: 6.00 Build 0)  -->
<svg version="1.1" id="Layer_1" xmlns="http://www.w3.org/2000/svg" xmlns:xlink="http://www.w3.org/1999/xlink" x="0px" y="0px"
	 viewBox="0 0 212 80.1" style="enable-background:new 0 0 212 80.1;" xml:space="preserve">
<style type="text/css">
	.st0{fill:#F8E000;}
	.st1{fill:#D7270F;}
	.st2{fill:#E27F15;}
	.st3{fill:#3B9831;}
	.st4{fill:#0096DC;}
	.st5{fill:#DC117E;}
	.st6{fill:#92408A;}
	.st7{enable-background:new    ;}
	.st8{fill:#FFFFFF;}
</style>
<g>
	<g>
		<rect y="5.6" class="st0" width="30.2" height="60.8"/>
		<polygon class="st1" points="92.6,67.9 52.5,59.7 63.3,0 103.3,8.2 		"/>
		<polygon class="st2" points="67.3,64.1 31.8,69.7 23.3,9.6 58.9,3.9 		"/>
		<rect x="90.3" y="10.9" class="st3" width="30.2" height="60.8"/>
		<rect x="120.2" y="19.3" class="st4" width="30.2" height="60.8"/>
		<polygon class="st5" points="193.8,61.5 150.7,72.2 137.8,12.9 180.9,2.3 		"/>
		<rect x="179" y="9.9" class="st6" width="33" height="60.8"/>
		<g class="st7">
			<path class="st8" d="M8.1,52.4l0.4-5.1L9,35.9l0.2-8.2c0-0.7,0-1.5,0-2.3c0-0.6,0-1.4,0-2.5c1.7,0,3.1,0,4.2,0
				c0.9,0,2.1,0,3.6-0.1c1.5,0,2.8-0.1,3.7-0.1c1.9,0,3.2,0.1,4.1,0.4c0.9,0.3,1.7,0.8,2.5,1.5c0.7,0.7,1.2,1.5,1.6,2.4
				c0.4,1.1,0.6,2.2,0.6,3.4c0,1.9-0.4,3.5-1.3,5.1c-0.9,1.5-2.1,2.7-3.6,3.4c-1.5,0.7-3.3,1.1-5.1,1.1c-0.9,0-1.9-0.1-2.9-0.3
				c-0.3-1.5-0.6-2.9-1-4.2c0.8,0.2,1.7,0.3,2.5,0.3c1.1,0,2.1-0.2,2.9-0.5c0.8-0.4,1.5-0.9,2-1.8s0.7-1.7,0.7-2.8
				c0-0.6-0.1-1.2-0.3-1.7c-0.2-0.5-0.5-0.9-0.9-1.2c-0.4-0.3-0.8-0.5-1.3-0.6c-0.5-0.1-1.1-0.2-2-0.2c-0.8,0-1.5,0-2.3,0
				c-0.8,0-1.4,0-2,0c-0.2,2.8-0.3,5.5-0.4,8.1l-0.2,8.2c-0.1,2.9-0.1,5.1-0.1,6.4c0,0.5,0,1.3,0,2.2l-2.9,0
				C10.8,52.3,9.7,52.3,8.1,52.4z"/>
			<path class="st8" d="M32.1,52.4l0.6-10.2l0.2-6c0-1.2,0-2.5,0-3.7c0-0.2,0-0.9,0-2c1.3,0,2.2,0,2.8,0c0.7,0,1.6,0,2.7,0l-0.1,3
				c0.5-0.8,1-1.4,1.3-1.7c0.4-0.4,0.8-0.7,1.2-1c0.5-0.3,1-0.5,1.5-0.6s1.1-0.2,1.7-0.2c0.5,0,1.1,0.1,1.7,0.2c0,1.3,0.1,3,0.2,5.1
				c-0.8-0.2-1.5-0.3-2.2-0.3c-0.8,0-1.5,0.1-2.1,0.4c-0.6,0.3-1.1,0.6-1.6,1.1c-0.5,0.5-0.9,1.1-1.2,1.9c-0.3,0.6-0.4,1.4-0.6,2.4
				c-0.1,0.7-0.2,2-0.3,3.8c-0.1,1.8-0.1,3.6-0.1,5.4c0,0.7,0,1.5,0.1,2.5c-1,0-2,0-2.8,0C34.3,52.3,33.3,52.3,32.1,52.4z"/>
			<path class="st8" d="M48.3,52.4c0.2-2.2,0.4-4,0.4-5.4c0.1-2.3,0.3-5,0.4-8c0.1-3,0.2-5.9,0.2-8.6c1.3,0,2.3,0,3,0
				c0.6,0,1.6,0,2.9,0c-0.2,2.5-0.3,4.9-0.4,7.2c-0.1,2.3-0.2,4.9-0.2,7.8c-0.1,2.9-0.1,5.3-0.1,7c-1.2,0-2.2,0-3,0
				C50.7,52.3,49.7,52.3,48.3,52.4z M49.4,26.7c0.1-1.5,0.1-2.6,0.1-3.4v-0.7c1.2,0,2.2,0,3,0c1.1,0,2,0,2.9,0
				c0,0.4-0.1,0.8-0.1,1.2l-0.1,2.9c-1,0-2,0-2.8,0S50.5,26.6,49.4,26.7z"/>
			<path class="st8" d="M59.2,52.4c0.3-3.3,0.6-6.9,0.8-11s0.3-7.7,0.4-10.9c1.2,0,2.2,0,3,0c0.9,0,1.8,0,2.8,0l-0.2,3.7
				c0.4-0.6,0.8-1.1,1.1-1.5c0.3-0.4,0.7-0.7,1.2-1.1s1-0.6,1.6-0.9s1.2-0.4,1.9-0.5c0.7-0.1,1.4-0.2,2.2-0.2c1.2,0,2.4,0.2,3.5,0.5
				c1.1,0.3,2,0.8,2.7,1.5c0.7,0.7,1.1,1.5,1.3,2.3c0.2,0.8,0.3,1.7,0.3,2.7c0,0.4,0,1-0.1,1.9l-0.4,9.4c-0.1,1.3-0.1,2.7-0.1,4.2
				c-1.1,0-2,0-2.7,0c-1,0-2.1,0-3.1,0c0.1-1.3,0.2-3.4,0.4-6.5c0.2-3.1,0.2-5.2,0.2-6.2c0-1.1-0.2-2-0.5-2.7
				c-0.3-0.7-0.9-1.2-1.6-1.6c-0.7-0.4-1.5-0.5-2.3-0.5c-0.8,0-1.6,0.2-2.3,0.5s-1.3,0.8-1.8,1.4c-0.5,0.6-1,1.4-1.3,2.4
				c-0.3,1-0.5,2.7-0.7,5c-0.1,2.1-0.2,4.8-0.3,8.3c-1,0-2,0-2.8,0C61.4,52.3,60.4,52.3,59.2,52.4z"/>
			<path class="st8" d="M98.6,47.9c-0.2,0.8-0.4,2.3-0.8,4.4c-1.1,0.3-2,0.4-2.7,0.5c-0.6,0.1-1.3,0.1-1.8,0.1c-1,0-1.9-0.1-2.7-0.3
				c-0.8-0.2-1.4-0.6-2-1.1s-0.9-1.1-1-1.8s-0.3-1.4-0.3-2.1c0-0.2,0-0.4,0-0.8c0-0.3,0.1-1.3,0.2-3.1l0.5-9h-2.9
				c0.1-0.9,0.1-2.3,0.2-4.2h3.1c0.1-0.8,0.2-2.3,0.2-4.3l2.4-0.5c0.5-0.1,1.5-0.3,2.9-0.7c-0.1,1.9-0.2,3.8-0.2,5.5h5.2
				c-0.1,1.9-0.1,3.3-0.1,4.2h-5.2c-0.3,5.9-0.4,9.2-0.4,10.2c0,0.9,0.1,1.6,0.3,2.1c0.2,0.5,0.5,0.8,0.9,1.1
				c0.4,0.2,0.8,0.3,1.3,0.3c0.3,0,0.7,0,1.1-0.1C97,48.3,97.6,48.1,98.6,47.9z"/>
			<path class="st8" d="M101,51.7c-0.1-2.2-0.3-4-0.4-5.4c2.6,1.3,5.1,1.9,7.2,1.9c0.9,0,1.7-0.1,2.4-0.4c0.8-0.3,1.3-0.7,1.7-1.2
				c0.4-0.5,0.5-1.1,0.5-1.7c0-0.5-0.1-0.9-0.3-1.3c-0.3-0.5-0.7-1.1-1.3-1.7c-0.8-0.8-2.2-2.1-4.1-3.9c-0.9-0.9-1.6-1.5-2-1.9
				c-0.8-0.8-1.4-1.6-1.9-2.2c-0.4-0.7-0.7-1.3-0.9-2c-0.2-0.6-0.3-1.3-0.3-2.1c0-1.4,0.4-2.6,1.1-3.8c0.7-1.2,1.8-2.1,3.2-2.8
				c1.4-0.7,3.2-1,5.3-1c1.9,0,4.1,0.3,6.5,0.8c0.1,1.5,0.2,3.2,0.4,5.1c-2.1-0.9-4-1.3-5.8-1.3c-1.3,0-2.4,0.3-3.2,1
				c-0.8,0.6-1.3,1.4-1.3,2.2c0,0.2,0,0.5,0.1,0.7c0.1,0.3,0.1,0.5,0.3,0.7s0.3,0.5,0.6,0.9c0.3,0.4,0.7,0.8,1.3,1.3
				c0.6,0.5,1.1,0.9,1.5,1.2l2.5,2.4c0.6,0.6,1.2,1.1,1.7,1.6s0.9,1,1.3,1.5c0.4,0.5,0.6,1,0.8,1.4c0.2,0.4,0.4,0.9,0.5,1.4
				s0.2,1,0.2,1.5c0,1.2-0.3,2.3-0.8,3.4c-0.5,1.1-1.3,2-2.3,2.6s-2.1,1.2-3.2,1.4s-2.4,0.4-3.7,0.4c-0.9,0-1.9-0.1-3-0.2
				C104.4,52.5,102.9,52.2,101,51.7z"/>
			<path class="st8" d="M122.7,52.4c0.2-2.4,0.4-6.1,0.6-11c0.2-4.9,0.3-8.5,0.3-11c1.1,0,2.1,0,2.8,0c0.8,0,1.7,0,2.7,0l-0.2,3.5
				c0.4-0.7,0.8-1.2,1.2-1.7c0.4-0.4,0.8-0.8,1.4-1.2c0.6-0.4,1.2-0.6,2-0.9s1.6-0.3,2.4-0.3c0.6,0,1.2,0.1,1.8,0.2
				c0.6,0.1,1.1,0.3,1.5,0.5c0.5,0.2,0.9,0.5,1.2,0.8c0.3,0.3,0.6,0.6,0.8,1c0.2,0.4,0.5,0.9,0.8,1.6c0.3-0.5,0.6-0.9,0.8-1.3
				s0.6-0.7,1-1c0.4-0.4,0.9-0.7,1.4-0.9c0.5-0.2,1.1-0.4,1.7-0.6c0.6-0.1,1.3-0.2,2-0.2c1.2,0,2.3,0.2,3.3,0.6
				c1,0.4,1.9,1.1,2.5,1.9c0.6,0.9,0.9,2,0.9,3.3c0,0.7,0,1.7-0.1,3c-0.1,1.3-0.2,3.5-0.3,6.5c-0.1,3-0.2,5.4-0.2,7
				c-1,0-1.9,0-2.6,0c-0.9,0-1.9,0-3.1,0c0.1-1.9,0.2-3.8,0.3-5.8l0.2-4.9c0.1-1.3,0.1-2.3,0.1-3.2c0-1-0.2-1.8-0.5-2.3
				c-0.3-0.5-0.7-0.9-1.2-1.1c-0.5-0.2-1-0.3-1.6-0.3c-0.6,0-1.2,0.1-1.7,0.4c-0.5,0.2-1,0.6-1.4,1.2s-0.8,1.2-1,1.9
				s-0.4,1.8-0.5,3.1c-0.1,1.3-0.2,3-0.3,5.2l-0.1,6c-1.1,0-2.1,0-2.8,0s-1.7,0-3,0c0.1-1.1,0.2-3.4,0.4-6.8
				c0.2-3.4,0.3-5.7,0.3-6.9c0-0.6,0-1.2-0.1-1.6c-0.1-0.4-0.3-0.9-0.6-1.3c-0.3-0.4-0.6-0.7-1-0.9c-0.4-0.2-0.8-0.3-1.4-0.3
				c-0.9,0-1.8,0.3-2.5,1c-0.7,0.7-1.2,1.5-1.6,2.7c-0.3,1.1-0.6,3.3-0.7,6.5c-0.1,3.2-0.2,5.7-0.2,7.6c-1.2,0-2.2,0-2.8,0
				C124.9,52.3,123.9,52.3,122.7,52.4z"/>
			<path class="st8" d="M159.7,52.4c0.2-2.2,0.3-4,0.4-5.4c0.1-2.3,0.3-5,0.4-8c0.1-3,0.2-5.9,0.2-8.6c1.3,0,2.3,0,3,0
				c0.6,0,1.6,0,2.9,0c-0.2,2.5-0.3,4.9-0.4,7.2c-0.1,2.3-0.2,4.9-0.2,7.8c-0.1,2.9-0.1,5.3-0.1,7c-1.2,0-2.2,0-3,0
				C162.2,52.3,161.1,52.3,159.7,52.4z M160.8,26.7c0.1-1.5,0.1-2.6,0.1-3.4v-0.7c1.2,0,2.2,0,3,0c1.1,0,2,0,2.9,0
				c0,0.4-0.1,0.8-0.1,1.2l-0.1,2.9c-1,0-2,0-2.8,0C163,26.6,162,26.6,160.8,26.7z"/>
			<path class="st8" d="M170.8,52.4c0.2-2.4,0.4-6.8,0.7-13.1c0.3-6.3,0.5-11.8,0.5-16.3c1.4,0,2.4,0,3,0c0.8,0,1.8,0,2.9,0
				l-0.5,7.9l-0.7,17.6l-0.1,4c-1.1,0-2,0-2.8,0C173.7,52.3,172.6,52.3,170.8,52.4z"/>
			<path class="st8" d="M200.2,47.5c-0.2,0.8-0.4,2.4-0.8,4.6c-1.5,0.3-2.7,0.6-3.7,0.7s-2,0.2-3,0.2c-1.8,0-3.4-0.2-4.8-0.6
				c-1.4-0.4-2.6-1.1-3.7-2.1c-1.1-1-1.8-2.2-2.3-3.7s-0.8-3-0.8-4.6c0-1.8,0.3-3.5,0.9-5.1c0.6-1.7,1.4-3,2.4-4.1
				c1-1.1,2.2-1.8,3.6-2.2c1.3-0.4,2.7-0.7,4.2-0.7c1.4,0,2.7,0.2,3.9,0.5c1.2,0.4,2.3,1,3.1,1.8c0.8,0.8,1.5,1.8,1.9,3
				c0.5,1.2,0.7,2.5,0.7,3.9c0,0.7-0.1,1.4-0.2,2.1l-14.9,0c0,0.5,0,1,0,1.3c0,1,0.2,1.8,0.5,2.7s0.8,1.5,1.4,2s1.3,1,2.1,1.2
				c0.8,0.3,1.6,0.4,2.4,0.4c0.9,0,1.9-0.1,3-0.3C197.4,48.4,198.7,48,200.2,47.5z M187.1,38.8l9.5,0c0-0.7,0-1.2-0.1-1.5
				c0-0.3-0.1-0.7-0.3-1.1c-0.1-0.4-0.3-0.8-0.6-1.1c-0.2-0.3-0.5-0.6-0.9-0.8s-0.7-0.4-1.1-0.5c-0.4-0.1-0.9-0.2-1.4-0.2
				c-0.6,0-1.1,0.1-1.7,0.3c-0.5,0.2-1,0.5-1.5,0.8s-0.8,0.8-1.1,1.2c-0.3,0.4-0.5,0.9-0.6,1.3S187.2,38.1,187.1,38.8z"/>
		</g>
	</g>
</g>
</svg>
