<?xml version="1.0" encoding="utf-8"?>
<!-- Generator: Adobe Illustrator 22.0.1, SVG Export Plug-In . SVG Version: 6.00 Build 0)  -->
<svg version="1.1" id="Layer_1" xmlns="http://www.w3.org/2000/svg" xmlns:xlink="http://www.w3.org/1999/xlink" x="0px" y="0px"
	 viewBox="0 0 13.7 16" style="enable-background:new 0 0 13.7 16;" xml:space="preserve">
<path d="M3.8,15.8c0,0-0.2,0-0.2-0.2v-3.4H0.4c-0.2,0-0.2,0-0.2-0.2v-0.4c0-0.1,0.1-0.2,0.2-0.2h3.2V8.9H0.4c-0.1,0-0.1,0-0.1-0.1
	V8.1c0-0.2,0-0.2,0.2-0.2h3.2V0.5c0-0.1,0-0.2,0-0.3c0,0,0.1,0,0.2,0h4.8c2.7,0,4.7,1.9,4.7,4.4c0,2.5-2.1,4.4-4.7,4.4h-4v2.4h6.2
	c0.1,0,0.2,0,0.2,0.2v0.5c0,0.1-0.1,0.2-0.2,0.2H4.7v3.3c0,0.2-0.1,0.2-0.2,0.2H3.8z M4.7,7.9h3.9c2.3,0,3.8-1.3,3.8-3.3
	c0-2-1.4-3.3-3.7-3.3h-4V7.9z"/>
</svg>
