<?xml version="1.0" encoding="utf-8"?>
<!-- Generator: Adobe Illustrator 22.0.1, SVG Export Plug-In . SVG Version: 6.00 Build 0)  -->
<svg version="1.1" id="Layer_1" xmlns="http://www.w3.org/2000/svg" xmlns:xlink="http://www.w3.org/1999/xlink" x="0px" y="0px"
	 viewBox="0 0 13.7 16" style="enable-background:new 0 0 13.7 16;" xml:space="preserve">
<path d="M3.9,0c0.4,0,1.9,0,4.8,0s4.9,2.1,4.9,4.6s-2.1,4.6-4.9,4.6s-3.8,0-3.8,0v2c0,0,5.7,0,6,0s0.4,0.2,0.4,0.4
	c0,0.3,0,0.5,0,0.5c0,0.2-0.2,0.4-0.4,0.4s-6,0-6,0s0,2.8,0,3.1c0,0.3-0.2,0.4-0.4,0.4c-0.2,0-0.6,0-0.7,0s-0.4-0.1-0.4-0.4
	s0-3.2,0-3.2s-2.7,0-3,0S0,12.3,0,12s0-0.2,0-0.2s0,0,0-0.2s0.2-0.4,0.4-0.4s3,0,3,0V9.1c0,0-2.8,0-3,0S0.1,9,0.1,8.8s0-0.5,0-0.7
	s0-0.4,0.4-0.4s3,0,3,0v-7c0,0,0,0,0-0.2C3.5,0.2,3.5,0,3.9,0z M4.9,1.5v6.2c0,0,1.5,0,3.7,0s3.6-1.3,3.6-3.1S11,1.5,8.7,1.5
	S4.9,1.5,4.9,1.5z"/>
</svg>
